<svg width="202" height="24" viewBox="0 0 202 24" fill="none" xmlns="http://www.w3.org/2000/svg">
<path d="M11.4255 10.9982C9.72893 12.7315 6.58452 12.3347 4.41285 10.1161C2.24118 7.9014 1.85661 4.68905 3.55323 2.95577C5.24985 1.22249 8.39425 1.61537 10.5659 3.83397C12.7338 6.05257 13.1222 9.26491 11.4255 10.9982ZM21.3602 3.83397C23.5281 1.61537 26.6763 1.22249 28.3691 2.95577C30.0658 4.68905 29.6774 7.9014 27.5095 10.1161C25.3378 12.3347 22.1934 12.7315 20.4968 10.9982C18.8002 9.26491 19.1885 6.05257 21.3602 3.83397ZM18.4873 14.6959C18.5891 14.5919 18.6909 14.4917 18.7889 14.3877C18.8153 14.3608 18.8492 14.3376 18.8944 14.3184C19.7428 13.9602 20.7607 13.679 21.6543 13.7445C21.741 13.7522 21.8315 13.7599 21.9257 13.7714C22.0539 13.7984 22.3819 13.8485 22.3819 13.8485C24.5159 14.1374 26.9402 13.3015 28.7801 11.418C31.653 8.48301 32.0414 4.10359 29.6435 1.65389C27.2456 -0.791961 22.9588 -0.399084 20.0859 2.53594C18.2422 4.41558 17.4278 6.89224 17.7068 9.07233C17.7068 9.07233 17.7558 9.40743 17.7822 9.53838C17.7935 9.63468 17.8011 9.72712 17.8086 9.81571C17.8727 10.7286 17.5975 11.7685 17.2468 12.6352C17.228 12.6814 17.2091 12.7161 17.179 12.743C17.0772 12.8432 16.9792 12.9472 16.8774 13.0512L15.9612 13.9871L15.045 13.0512C14.9432 12.9472 14.8452 12.8432 14.7434 12.743C14.7132 12.7161 14.6944 12.6814 14.6755 12.6352C14.3249 11.7685 14.0497 10.7286 14.1137 9.81571C14.1213 9.73097 14.1288 9.63468 14.1401 9.53838C14.1665 9.40743 14.2155 9.07233 14.2155 9.07233C14.4983 6.89224 13.6802 4.41558 11.8365 2.53594C8.96356 -0.399084 4.67677 -0.791961 2.27888 1.65389C-0.115242 4.10359 0.269325 8.48301 3.14227 11.418C4.98216 13.2977 7.40644 14.1374 9.54041 13.8485C9.54041 13.8485 9.86843 13.7984 9.99662 13.7714C10.0909 13.7599 10.1851 13.7522 10.2681 13.7445C11.1654 13.679 12.1796 13.9602 13.0279 14.3184C13.0732 14.3376 13.1071 14.3608 13.1335 14.3877C13.2315 14.4917 13.3333 14.5919 13.4351 14.6959L14.3513 15.6318L8.63932 21.4672C8.6167 21.4903 8.59408 21.5019 8.57523 21.5096C8.17558 21.6174 7.91543 21.8986 7.84379 22.2799C7.82117 22.3839 7.81363 22.4995 7.82117 22.615C7.84756 22.9771 7.99083 23.3006 8.21328 23.551C8.45458 23.7744 8.77128 23.9246 9.12569 23.9477C9.24256 23.9554 9.3519 23.9477 9.44993 23.9246C9.82696 23.8514 10.1022 23.5857 10.2115 23.1774C10.2153 23.1581 10.2266 23.1389 10.2492 23.1119L15.9612 17.2765L21.6731 23.1119C21.6958 23.1389 21.7071 23.1581 21.7108 23.1774C21.8202 23.5857 22.0954 23.8514 22.4687 23.9246C22.5742 23.9477 22.6798 23.9554 22.7967 23.9477C23.1511 23.9246 23.4678 23.7744 23.7129 23.551C23.9353 23.3006 24.0786 22.9771 24.1012 22.615C24.1125 22.4995 24.1012 22.3839 24.0786 22.2799C24.0032 21.8986 23.7506 21.6174 23.3471 21.5096C23.3283 21.5019 23.3094 21.4903 23.283 21.4672L17.5711 15.6318L18.4873 14.6959Z" fill="black"/>
<path d="M44.4418 15.9671L44.8829 16.1866C44.8829 16.4485 44.9394 16.6796 45.0563 16.8761C45.2599 17.2266 45.6633 17.5694 46.2628 17.9006C46.8623 18.2319 47.5485 18.5323 48.3251 18.7904C49.1018 19.0484 49.9124 19.2603 50.7645 19.4182C51.6128 19.5761 52.3744 19.657 53.0493 19.657C53.547 19.657 54.1879 19.6185 54.9797 19.5492C55.7677 19.4798 56.5443 19.3219 57.3097 19.0908C58.0637 18.8636 58.7273 18.5439 59.2815 18.1394C59.8358 17.7312 60.1185 17.1996 60.1185 16.5333C60.1185 15.8669 59.8584 15.3777 59.3494 15.058C58.8329 14.7384 58.1618 14.5111 57.3285 14.3647C56.4915 14.2184 55.5452 14.1259 54.4744 14.0797C53.4037 14.0412 52.3141 13.9757 51.2019 13.8871C50.0896 13.7985 49 13.656 47.9293 13.4519C46.8623 13.2477 45.9122 12.9126 45.0752 12.4312C44.2457 11.9536 43.5671 11.3026 43.0581 10.4783C42.5453 9.65792 42.2889 8.57944 42.2889 7.25059C42.2889 6.35313 42.5001 5.47109 42.9223 4.6006C43.3484 3.73396 44.0006 2.96746 44.8829 2.30497C45.7576 1.63862 46.8698 1.09552 48.2158 0.675684C49.5618 0.255845 51.1415 0.0478516 52.9588 0.0478516C54.5122 0.0478516 55.8581 0.163404 56.9968 0.394506C58.1391 0.625611 59.127 0.872123 59.964 1.13019C60.7972 1.39211 61.4985 1.63862 62.0715 1.86972C62.6408 2.10082 63.1159 2.21638 63.4967 2.21638C63.9077 2.21638 64.2017 2.12779 64.3752 1.95446L64.903 2.30497L61.8717 7.7282L61.4344 7.55102C61.3778 7.14659 61.2572 6.81534 61.0837 6.55343C60.85 6.20677 60.4579 5.86782 59.9187 5.53272C59.3758 5.20532 58.7386 4.90488 58.011 4.64682C57.2795 4.3849 56.4878 4.17691 55.6395 4.01899C54.7874 3.86107 53.9391 3.77633 53.0908 3.77633C52.446 3.77633 51.7787 3.83025 51.0925 3.9304C50.4063 4.03054 49.7842 4.18076 49.2262 4.3849C48.672 4.58904 48.2083 4.85481 47.8425 5.18991C47.4768 5.52116 47.2921 5.9333 47.2921 6.42632C47.2921 7.11963 47.5485 7.63961 48.0612 7.98627C48.574 8.33293 49.2489 8.59099 50.0821 8.76817C50.9191 8.9415 51.8654 9.05705 52.9362 9.11483C54.0032 9.1726 55.0928 9.24579 56.2088 9.33052C57.321 9.41526 58.4106 9.56933 59.4814 9.78888C60.5483 10.0046 61.4985 10.3512 62.3317 10.8288C63.1649 11.3026 63.8436 11.9497 64.3526 12.7586C64.8653 13.5674 65.1217 14.6228 65.1217 15.9285C65.1217 17.4307 64.722 18.6594 63.9152 19.6146C63.1084 20.566 62.1092 21.321 60.9065 21.8718C59.7038 22.4187 58.4106 22.7885 57.0194 22.9734C55.6282 23.1621 54.3349 23.2584 53.136 23.2584C51.4658 23.2584 50.067 23.1621 48.9397 22.9734C47.8124 22.7885 46.8774 22.5574 46.1308 22.28C45.3843 22.0027 44.7924 21.7601 44.3513 21.5444C43.9139 21.3287 43.5331 21.217 43.2127 21.217C43.0053 21.217 42.8168 21.3325 42.6396 21.5675L42.025 21.217L44.4418 15.9671Z" fill="black"/>
<path d="M71.8855 22.3453C72.6471 22.3453 73.0279 22.0873 73.0279 21.5673V1.86952C73.0279 1.34954 72.6471 1.08762 71.8855 1.08762V0.30957H79.1772V1.08762C78.4118 1.08762 78.031 1.34954 78.031 1.86952V21.5673C78.031 22.0873 78.4118 22.3453 79.1772 22.3453V23.1272H71.8855V22.3453Z" fill="black"/>
<path d="M108.069 23.9515C108.069 23.5163 107.929 23.2736 107.65 23.212C107.371 23.1542 107.013 23.1272 106.576 23.1272H85.6733V22.3453C86.548 22.3453 86.9892 22.0834 86.9892 21.5673V1.86952C86.9892 1.34954 86.548 1.08762 85.6733 1.08762V0.30957H93.2252V1.08762C92.407 1.08762 91.9961 1.34954 91.9961 1.86952V19.1368H106.576C107.013 19.1368 107.371 19.0367 107.65 18.8325C107.929 18.6284 108.069 18.3549 108.069 18.0083H108.857V23.9515H108.069Z" fill="black"/>
<path d="M127.082 0.305664C128.428 0.305664 129.729 0.417364 130.992 0.633061C132.251 0.848758 133.363 1.19541 134.329 1.67303C135.294 2.15064 136.071 2.77462 136.655 3.54112C137.239 4.30761 137.533 5.25129 137.533 6.3837C137.533 7.74336 137.111 8.79103 136.263 9.52671C135.411 10.2624 134.404 10.8363 133.228 11.2369V11.3293C134.608 11.7338 135.773 12.377 136.723 13.2552C137.673 14.1372 138.148 15.4045 138.148 17.053C138.148 17.9235 137.959 18.7246 137.579 19.4603C137.198 20.196 136.632 20.8431 135.89 21.39C135.143 21.9408 134.227 22.3684 133.145 22.6727C132.055 22.9731 130.83 23.1272 129.454 23.1272H113.34V22.3453C114.158 22.3453 114.565 22.0834 114.565 21.5672V1.86947C114.565 1.34948 114.158 1.09142 113.34 1.09142V0.305664H127.082ZM127.961 9.24168C129.277 9.24168 130.37 9.07991 131.233 8.74481C132.093 8.41356 132.53 7.71254 132.53 6.64176C132.53 5.57098 132.093 4.86997 131.233 4.53872C130.37 4.20747 129.277 4.03799 127.961 4.03799H119.576V9.24168H127.961ZM127.961 19.1368C129.804 19.1368 131.128 18.8556 131.935 18.2894C132.741 17.727 133.145 16.9837 133.145 16.0554C133.145 15.131 132.741 14.3837 131.935 13.8252C131.128 13.2552 129.804 12.974 127.961 12.974H119.576V19.1368H127.961Z" fill="black"/>
<path d="M156.283 0.0478516C157.897 0.0478516 159.533 0.28666 161.203 0.760422C162.87 1.24189 164.389 1.95831 165.769 2.90969C167.145 3.86877 168.272 5.07436 169.151 6.53417C170.026 7.99397 170.467 9.71955 170.467 11.7186C170.467 13.7138 170.026 15.4394 169.151 16.903C168.272 18.3628 167.145 19.5684 165.769 20.5275C164.389 21.4789 162.87 22.1722 161.203 22.6036C159.533 23.0388 157.897 23.2584 156.283 23.2584C154.673 23.2584 153.033 23.0388 151.363 22.6036C149.696 22.1722 148.173 21.4789 146.801 20.5275C145.421 19.5684 144.297 18.3628 143.419 16.903C142.54 15.4394 142.103 13.7138 142.103 11.7186C142.103 9.71955 142.54 7.99397 143.419 6.53417C144.297 5.07436 145.421 3.86877 146.801 2.90969C148.173 1.95831 149.696 1.24189 151.363 0.760422C153.033 0.28666 154.673 0.0478516 156.283 0.0478516V0.0478516ZM156.283 4.03825C155.171 4.03825 154.059 4.21157 152.946 4.55823C151.834 4.90488 150.831 5.40561 149.941 6.05655C149.044 6.70749 148.324 7.50866 147.766 8.46774C147.208 9.41911 146.933 10.5053 146.933 11.7186C146.933 12.9319 147.208 14.0181 147.766 14.9695C148.324 15.9285 149.044 16.7297 149.941 17.3806C150.831 18.0316 151.834 18.5285 152.946 18.879C154.059 19.2218 155.171 19.3989 156.283 19.3989C157.395 19.3989 158.507 19.2218 159.623 18.879C160.732 18.5285 161.735 18.0316 162.628 17.3806C163.526 16.7297 164.246 15.9285 164.804 14.9695C165.358 14.0181 165.637 12.9319 165.637 11.7186C165.637 10.5053 165.358 9.41911 164.804 8.46774C164.246 7.50866 163.526 6.70749 162.628 6.05655C161.735 5.40561 160.732 4.90488 159.623 4.55823C158.507 4.21157 157.395 4.03825 156.283 4.03825Z" fill="black"/>
<path d="M175.168 22.3453C175.722 22.3453 176.001 22.0873 176.001 21.5673V1.86952C176.001 1.34954 175.722 1.08762 175.168 1.08762V0.30957H182.675V1.08762C182.441 1.08762 182.324 1.23399 182.324 1.52287C182.324 1.75397 182.618 2.1584 183.203 2.73616L195.803 15.6664V1.86952C195.803 1.34954 195.422 1.08762 194.664 1.08762V0.30957H201.292V1.08762C200.738 1.08762 200.459 1.34954 200.459 1.86952V21.5673C200.459 22.0873 200.738 22.3453 201.292 22.3453V23.1272H194.178V22.3453C194.562 22.3453 194.751 22.2144 194.751 21.9563C194.751 21.7522 194.517 21.4209 194.05 20.9549L180.658 7.1618V21.5673C180.658 22.0873 180.993 22.3453 181.664 22.3453V23.1272H175.168V22.3453Z" fill="black"/>
</svg>
