<svg width="24" height="24" viewBox="0 0 24 24" fill="none" xmlns="http://www.w3.org/2000/svg">
<path d="M2.975 5.64912L3.73841 6.29504L3.73841 6.29504L2.975 5.64912ZM5.70625 2.42105L4.94284 1.77514L4.94284 1.77514L5.70625 2.42105ZM18.2937 2.42105L17.5303 3.06697V3.06697L18.2937 2.42105ZM21.025 5.64912L21.7884 5.00321V5.00321L21.025 5.64912ZM16.5625 10.4211C16.5625 9.86877 16.1148 9.42105 15.5625 9.42105C15.0102 9.42105 14.5625 9.86877 14.5625 10.4211H16.5625ZM9.4375 10.4211C9.4375 9.86877 8.98978 9.42105 8.4375 9.42105C7.88522 9.42105 7.4375 9.86877 7.4375 10.4211H9.4375ZM20.5 6.91228V19.8947H22.5V6.91228H20.5ZM19.125 21H4.875V23H19.125V21ZM3.5 19.8947V6.91228H1.5V19.8947H3.5ZM3.73841 6.29504L6.46966 3.06697L4.94284 1.77514L2.21159 5.00321L3.73841 6.29504ZM6.65625 3H17.3438V1H6.65625V3ZM17.5303 3.06697L20.2616 6.29504L21.7884 5.00321L19.0572 1.77514L17.5303 3.06697ZM17.3438 3C17.4489 3 17.512 3.0453 17.5303 3.06697L19.0572 1.77514C18.627 1.26669 17.9861 1 17.3438 1V3ZM6.46966 3.06697C6.48799 3.0453 6.55106 3 6.65625 3V1C6.01389 1 5.37304 1.26669 4.94284 1.77514L6.46966 3.06697ZM4.875 21C3.99888 21 3.5 20.3952 3.5 19.8947H1.5C1.5 21.7196 3.12777 23 4.875 23V21ZM20.5 19.8947C20.5 20.3952 20.0011 21 19.125 21V23C20.8722 23 22.5 21.7196 22.5 19.8947H20.5ZM22.5 6.91228C22.5 6.20823 22.2415 5.53877 21.7884 5.00321L20.2616 6.29504C20.4251 6.4883 20.5 6.7053 20.5 6.91228H22.5ZM3.5 6.91228C3.5 6.7053 3.57489 6.4883 3.73841 6.29504L2.21159 5.00321C1.75845 5.53877 1.5 6.20823 1.5 6.91228H3.5ZM2.6395 7.21053H21.3547V5.21053H2.6395V7.21053ZM14.5625 10.4211C14.5625 11.5029 13.532 12.5789 12 12.5789V14.5789C14.4031 14.5789 16.5625 12.8273 16.5625 10.4211H14.5625ZM12 12.5789C10.468 12.5789 9.4375 11.5029 9.4375 10.4211H7.4375C7.4375 12.8273 9.59693 14.5789 12 14.5789V12.5789Z" fill="#3C3F40"/>
</svg>
