<svg width="26" height="26" viewBox="0 0 26 26" fill="none" xmlns="http://www.w3.org/2000/svg">
<circle cx="13" cy="13" r="13" fill="#3C3F40"/>
<path d="M7.82484 8.41667L8.20581 8.74049H8.20581L7.82484 8.41667ZM9.454 6.5L9.07303 6.17618L9.07303 6.17618L9.454 6.5ZM16.9623 6.5L16.5814 6.82382V6.82382L16.9623 6.5ZM18.5915 8.41667L18.9725 8.09284L18.9725 8.09284L18.5915 8.41667ZM15.8332 11.25C15.8332 10.9739 15.6093 10.75 15.3332 10.75C15.057 10.75 14.8332 10.9739 14.8332 11.25H15.8332ZM11.5832 11.25C11.5832 10.9739 11.3593 10.75 11.0832 10.75C10.807 10.75 10.5832 10.9739 10.5832 11.25H11.5832ZM18.3748 9.16667V16.875H19.3748V9.16667H18.3748ZM17.4582 17.625H8.95817V18.625H17.4582V17.625ZM8.0415 16.875V9.16667H7.0415V16.875H8.0415ZM8.20581 8.74049L9.83497 6.82382L9.07303 6.17618L7.44387 8.09284L8.20581 8.74049ZM10.0207 6.75H16.3957V5.75H10.0207V6.75ZM16.5814 6.82382L18.2105 8.74049L18.9725 8.09284L17.3433 6.17618L16.5814 6.82382ZM16.3957 6.75C16.4852 6.75 16.5508 6.7879 16.5814 6.82382L17.3433 6.17618C17.1063 5.89734 16.7521 5.75 16.3957 5.75V6.75ZM9.83497 6.82382C9.86551 6.7879 9.93118 6.75 10.0207 6.75V5.75C9.66425 5.75 9.31005 5.89734 9.07303 6.17618L9.83497 6.82382ZM8.95817 17.625C8.39126 17.625 8.0415 17.2322 8.0415 16.875H7.0415C7.0415 17.8985 7.96027 18.625 8.95817 18.625V17.625ZM18.3748 16.875C18.3748 17.2322 18.0251 17.625 17.4582 17.625V18.625C18.4561 18.625 19.3748 17.8985 19.3748 16.875H18.3748ZM19.3748 9.16667C19.3748 8.77127 19.2291 8.39471 18.9725 8.09284L18.2105 8.74049C18.3218 8.87137 18.3748 9.02113 18.3748 9.16667H19.3748ZM8.0415 9.16667C8.0415 9.02113 8.09456 8.87137 8.20581 8.74049L7.44387 8.09284C7.18728 8.39471 7.0415 8.77127 7.0415 9.16667H8.0415ZM7.62471 9.25H18.7882V8.25H7.62471V9.25ZM14.8332 11.25C14.8332 11.9524 14.1663 12.625 13.2082 12.625V13.625C14.5973 13.625 15.8332 12.6187 15.8332 11.25H14.8332ZM13.2082 12.625C12.2501 12.625 11.5832 11.9524 11.5832 11.25H10.5832C10.5832 12.6187 11.8191 13.625 13.2082 13.625V12.625Z" fill="#D8D9CC"/>
</svg>
