<svg width="26" height="26" viewBox="0 0 26 26" fill="none" xmlns="http://www.w3.org/2000/svg">
<path d="M12.5 17.8332C12.6031 17.8332 12.7504 17.7671 12.8584 17.7057C15.6224 16.0064 17.375 14.0285 17.375 12.0176C17.375 10.3466 16.182 9.1665 14.6405 9.1665C13.7171 9.1665 12.9993 9.64078 12.5486 10.3733C12.5266 10.4091 12.4737 10.4089 12.4519 10.373C12.0093 9.64483 11.2826 9.1665 10.3595 9.1665C8.81798 9.1665 7.625 10.3466 7.625 12.0176C7.625 14.0285 9.37764 16.0064 12.1465 17.7057C12.2496 17.7671 12.3969 17.8332 12.5 17.8332Z" stroke="#3C3F40" stroke-linecap="round"/>
<circle cx="13" cy="13" r="12.5" stroke="#3C3F40"/>
</svg>
